<svg width="151" height="25" viewBox="0 0 151 25" fill="none" xmlns="http://www.w3.org/2000/svg">
<g clip-path="url(#clip0_12904_2697)">
<path d="M56.293 16.3544H58.276C58.3368 16.8762 58.6064 17.3024 59.0848 17.6155C59.5631 17.9373 60.1459 18.0938 60.8503 18.0938C61.5374 18.0938 62.094 17.9373 62.5376 17.6329C62.9725 17.3285 63.1899 16.9371 63.1899 16.4588C63.1899 16.05 63.0333 15.7108 62.7115 15.4586C62.3984 15.2064 61.8766 14.989 61.1547 14.8237L59.6762 14.4758C58.6238 14.2323 57.8411 13.8496 57.3367 13.3452C56.8235 12.8321 56.5713 12.1711 56.5713 11.3448C56.5713 10.336 56.9713 9.51842 57.7628 8.88355C58.5543 8.2573 59.5805 7.93555 60.8329 7.93555C62.094 7.93555 63.1029 8.2486 63.877 8.86615C64.6423 9.48362 65.0424 10.3012 65.0685 11.31H63.1203C63.0681 10.7795 62.842 10.3533 62.4332 10.049C62.0245 9.74455 61.4852 9.59672 60.8242 9.59672C60.1807 9.59672 59.6588 9.74455 59.2588 10.0316C58.8586 10.3186 58.6586 10.7012 58.6586 11.1796C58.6586 11.5622 58.8151 11.8667 59.1196 12.1102C59.424 12.345 59.9371 12.5537 60.6329 12.719L61.9462 13.0234C63.1029 13.2843 63.9466 13.6757 64.4683 14.1801C64.9902 14.6846 65.2511 15.3629 65.2511 16.2152C65.2511 17.3024 64.8424 18.1634 64.0335 18.7983C63.2247 19.4333 62.1201 19.755 60.7372 19.755C59.4153 19.755 58.3542 19.4506 57.5541 18.8418C56.7539 18.233 56.3365 17.4068 56.293 16.3544Z" fill="#1D304E"/>
<path d="M67.2591 8.98145H69.2334V10.9122H70.8772V12.4429H69.2334V17.009C69.2334 17.7135 69.5812 18.0613 70.277 18.0613C70.4597 18.0613 70.651 18.0439 70.8685 18.0178V19.5312C70.6336 19.5834 70.2857 19.6094 69.8335 19.6094C68.9116 19.6094 68.2593 19.4268 67.8592 19.0702C67.4591 18.7049 67.2678 18.1135 67.2678 17.2698V12.4342H66.085V10.9035H67.2678V8.98145H67.2591Z" fill="#1D304E"/>
<path d="M79.8519 10.912V19.5744H77.9559V18.0611H77.9124C77.6776 18.5916 77.3206 18.9917 76.8429 19.27C76.3726 19.5483 75.8079 19.6875 75.1464 19.6875C74.1987 19.6875 73.4333 19.4005 72.8679 18.8265C72.3026 18.2524 72.0156 17.461 72.0156 16.4695V10.912H73.9899V16.0782C73.9899 16.7043 74.1552 17.1827 74.4769 17.5132C74.7987 17.8524 75.2596 18.0176 75.8424 18.0176C76.4424 18.0176 76.9299 17.8176 77.3034 17.4262C77.6776 17.0349 77.8599 16.5217 77.8599 15.8781V10.9033H79.8519V10.912Z" fill="#1D304E"/>
<path d="M84.8444 19.6702C83.7576 19.6702 82.8876 19.2702 82.2269 18.4614C81.5654 17.6525 81.2354 16.5828 81.2354 15.2347C81.2354 13.8953 81.5654 12.8256 82.2269 12.0167C82.8876 11.2079 83.7576 10.8078 84.8361 10.8078C85.4534 10.8078 86.0009 10.947 86.4711 11.2166C86.9406 11.4949 87.2969 11.8689 87.5316 12.3559H87.5841V7.58984H89.5581V19.5572H87.6276V18.0874H87.5931C87.3584 18.5744 86.9924 18.9571 86.5146 19.2354C86.0361 19.5137 85.4706 19.6702 84.8444 19.6702ZM85.4189 12.4603C84.7664 12.4603 84.2354 12.7125 83.8446 13.2256C83.4531 13.7301 83.2529 14.4085 83.2529 15.2521C83.2529 16.1044 83.4531 16.7828 83.8446 17.2786C84.2354 17.783 84.7664 18.0352 85.4189 18.0352C86.0706 18.0352 86.6016 17.783 86.9924 17.2699C87.3839 16.7654 87.5841 16.087 87.5841 15.2521C87.5841 14.4172 87.3839 13.7475 86.9924 13.2256C86.5926 12.7125 86.0706 12.4603 85.4189 12.4603Z" fill="#1D304E"/>
<path d="M92.3508 9.80821C92.0463 9.80821 91.7853 9.70381 91.5678 9.49509C91.3503 9.28636 91.2461 9.02544 91.2461 8.72971C91.2461 8.42536 91.3503 8.16444 91.5678 7.95571C91.7853 7.74695 92.0463 7.64258 92.3508 7.64258C92.6636 7.64258 92.9246 7.74695 93.1421 7.95571C93.3596 8.16444 93.4638 8.42536 93.4638 8.72971C93.4638 9.03414 93.3596 9.29506 93.1421 9.50379C92.9246 9.70381 92.6636 9.80821 92.3508 9.80821ZM91.3676 10.9127H93.3423V19.5752H91.3676V10.9127Z" fill="#1D304E"/>
<path d="M98.8733 19.7037C97.5945 19.7037 96.5775 19.3037 95.829 18.5035C95.0813 17.7034 94.707 16.6162 94.707 15.2333C94.707 13.8679 95.0813 12.7895 95.838 11.9893C96.5948 11.1892 97.6035 10.7891 98.8823 10.7891C100.16 10.7891 101.178 11.1892 101.926 11.9893C102.683 12.7895 103.057 13.8679 103.057 15.242C103.057 16.6249 102.683 17.7121 101.935 18.5122C101.169 19.3037 100.152 19.7037 98.8733 19.7037ZM98.8733 18.1295C99.552 18.1295 100.091 17.8773 100.474 17.3729C100.856 16.8684 101.048 16.1639 101.048 15.2507C101.048 14.3462 100.856 13.6418 100.474 13.1373C100.091 12.6329 99.5603 12.372 98.8733 12.372C98.1945 12.372 97.6643 12.6242 97.2818 13.1373C96.8993 13.6418 96.708 14.3462 96.708 15.2507C96.708 16.1552 96.8993 16.8597 97.2818 17.3642C97.6643 17.8686 98.1945 18.1295 98.8733 18.1295Z" fill="#1D304E"/>
<path d="M109.11 10.8154C110.215 10.8154 111.093 11.2156 111.745 12.0157C112.397 12.8158 112.719 13.8943 112.719 15.251C112.719 16.6078 112.397 17.6776 111.754 18.4777C111.11 19.2778 110.24 19.6779 109.145 19.6779C108.527 19.6779 107.979 19.5475 107.51 19.2778C107.04 19.0082 106.675 18.6343 106.431 18.1472H106.397V22.3654H104.422V10.9111H106.344V12.3723H106.388C106.622 11.8939 106.988 11.5199 107.483 11.2416C107.962 10.9546 108.51 10.8154 109.11 10.8154ZM108.536 18.0341C109.188 18.0341 109.719 17.7819 110.11 17.2775C110.501 16.7731 110.702 16.0947 110.702 15.251C110.702 14.4074 110.501 13.729 110.11 13.2246C109.719 12.7201 109.188 12.4592 108.536 12.4592C107.892 12.4592 107.371 12.7201 106.97 13.2333C106.571 13.7464 106.379 14.4161 106.379 15.251C106.379 16.086 106.579 16.7557 106.97 17.2688C107.371 17.7733 107.892 18.0341 108.536 18.0341Z" fill="#1D304E"/>
<path d="M114.111 19.5736V10.9111H116.007V12.4157H116.051C116.19 11.9113 116.442 11.5112 116.808 11.233C117.173 10.9546 117.616 10.8154 118.129 10.8154C118.373 10.8154 118.573 10.8415 118.729 10.8937V12.694C118.555 12.6158 118.294 12.5723 117.947 12.5723C117.372 12.5723 116.92 12.7462 116.59 13.1029C116.259 13.4507 116.094 13.9378 116.094 14.5465V19.5736H114.111Z" fill="#1D304E"/>
<path d="M125.417 16.9989H127.27C127.139 17.799 126.731 18.4514 126.026 18.9557C125.321 19.4515 124.469 19.7037 123.461 19.7037C122.182 19.7037 121.173 19.3037 120.425 18.5122C119.686 17.7208 119.312 16.6423 119.312 15.2768C119.312 13.9114 119.677 12.8243 120.416 12.0067C121.156 11.1892 122.147 10.7891 123.382 10.7891C124.6 10.7891 125.565 11.1718 126.278 11.9458C126.992 12.7199 127.348 13.7549 127.348 15.0681V15.7204H121.286V15.8422C121.286 16.538 121.486 17.1032 121.895 17.5295C122.303 17.9556 122.834 18.1643 123.495 18.1643C123.974 18.1643 124.382 18.0599 124.721 17.8512C125.069 17.6425 125.304 17.3642 125.417 16.9989ZM123.391 12.3285C122.817 12.3285 122.33 12.5198 121.947 12.9025C121.565 13.2852 121.347 13.7897 121.304 14.4071H125.408C125.391 13.781 125.191 13.2852 124.826 12.9025C124.452 12.5198 123.974 12.3285 123.391 12.3285Z" fill="#1D304E"/>
<path d="M128.497 13.4156C128.497 12.6242 128.819 11.998 129.453 11.5109C130.088 11.0326 130.932 10.7891 131.975 10.7891C132.976 10.7891 133.793 11.0326 134.429 11.5196C135.063 12.0067 135.394 12.6503 135.411 13.433H133.576C133.541 13.0678 133.385 12.7808 133.089 12.5633C132.793 12.3459 132.41 12.2415 131.941 12.2415C131.48 12.2415 131.114 12.3372 130.836 12.5285C130.558 12.7199 130.419 12.9808 130.419 13.2939C130.419 13.7723 130.836 14.1114 131.68 14.3114L133.202 14.6594C134.072 14.8594 134.689 15.1377 135.063 15.503C135.428 15.8596 135.611 16.364 135.611 16.9989C135.611 17.799 135.272 18.4514 134.585 18.947C133.907 19.4428 133.019 19.695 131.932 19.695C130.88 19.695 130.019 19.4515 129.358 18.9644C128.697 18.4774 128.34 17.8251 128.279 17.0163H130.219C130.28 17.4077 130.463 17.7121 130.767 17.9208C131.071 18.1295 131.489 18.2339 132.011 18.2339C132.515 18.2339 132.915 18.1382 133.202 17.9556C133.498 17.7643 133.646 17.5121 133.646 17.1902C133.646 16.938 133.559 16.738 133.385 16.5815C133.211 16.4336 132.906 16.3031 132.471 16.2074L130.906 15.8248C129.288 15.4595 128.497 14.6507 128.497 13.4156Z" fill="#1D304E"/>
<path d="M137.454 8.98145H139.428V10.9122H141.072V12.4429H139.428V17.009C139.428 17.7135 139.776 18.0613 140.472 18.0613C140.654 18.0613 140.846 18.0439 141.055 18.0178V19.5312C140.82 19.5834 140.472 19.6094 140.02 19.6094C139.098 19.6094 138.437 19.4268 138.046 19.0702C137.645 18.7049 137.454 18.1135 137.454 17.2698V12.4342H136.271V10.9035H137.454V8.98145Z" fill="#1D304E"/>
<path d="M145.943 19.7037C144.664 19.7037 143.647 19.3037 142.898 18.5035C142.151 17.7034 141.776 16.6162 141.776 15.2333C141.776 13.8679 142.151 12.7895 142.907 11.9893C143.664 11.1892 144.673 10.7891 145.952 10.7891C147.23 10.7891 148.247 11.1892 148.995 11.9893C149.752 12.7895 150.126 13.8679 150.126 15.242C150.126 16.6249 149.752 17.7121 149.004 18.5122C148.247 19.3037 147.23 19.7037 145.943 19.7037ZM145.943 18.1295C146.621 18.1295 147.161 17.8773 147.543 17.3729C147.926 16.8684 148.117 16.1639 148.117 15.2507C148.117 14.3462 147.926 13.6418 147.543 13.1373C147.161 12.6329 146.63 12.372 145.943 12.372C145.265 12.372 144.734 12.6242 144.351 13.1373C143.969 13.6418 143.777 14.3462 143.777 15.2507C143.777 16.1552 143.969 16.8597 144.351 17.3642C144.743 17.8686 145.273 18.1295 145.943 18.1295Z" fill="#1D304E"/>
<path d="M2.43871 16.408C2.07342 15.6166 1.30807 15.1731 0.716661 15.4339C0.125251 15.6949 -0.0486935 16.5472 0.31659 17.3386C0.681872 18.1301 1.44723 18.5737 2.03864 18.3127C2.62135 18.0605 2.80399 17.2082 2.43871 16.408ZM8.49198 20.861C8.6311 21.2785 8.39628 21.7308 7.97883 21.8699C7.58745 22.0873 7.09171 21.9569 6.85689 21.5742C6.72643 21.148 6.95256 20.6958 7.37872 20.5653C7.7701 20.3479 8.25715 20.4784 8.49198 20.861ZM14.7105 22.2439C15.4497 23.0962 17.6328 23.6615 20.4072 23.9485C18.0328 22.4526 15.7368 20.9915 13.4755 19.5739C13.5885 20.574 14.0234 21.5133 14.7105 22.2439ZM5.81322 18.3214C6.95256 19.9652 9.48348 18.8694 11.1446 18.1214C9.06595 16.8256 7.00474 15.5557 4.9522 14.3207C5.23921 14.7121 5.43924 15.1557 5.54361 15.634C5.76104 16.7821 5.23051 17.4778 5.81322 18.3214ZM2.43001 9.30245C9.25735 13.4858 15.6323 18.4693 24.2948 24.166C25.8081 24.1834 27.3649 24.1399 28.8956 24.0268C16.9718 16.8951 11.9796 10.9723 5.43924 6.64979C4.16946 7.18031 3.02142 7.8935 2.43001 9.30245ZM39.7497 20.3914C40.6716 19.3825 41.15 18.0518 41.0891 16.6864C27.6258 13.7206 29.6784 8.98933 23.2077 5.31041C22.164 5.51045 21.0768 5.42348 20.0766 5.0495C19.407 4.7277 18.7025 4.37112 17.2674 3.01436C15.3193 2.50991 13.3537 2.10115 11.3708 1.80545C11.2403 2.07506 11.1446 2.37076 11.0316 2.68386C25.5385 6.21493 18.659 13.6162 39.7497 20.3914ZM10.5967 3.61446C10.2575 4.17108 9.78783 4.64073 9.23995 4.98862C8.90943 5.20605 8.56158 5.39739 8.20495 5.55394C14.5713 9.7982 17.8676 16.095 32.3658 23.6441C33.192 23.5137 33.9835 23.3745 34.7141 23.2006C35.6273 22.9918 36.5144 22.6614 37.3493 22.2352C18.0154 14.5294 19.9636 7.49341 10.5967 3.61446ZM13.2493 0.413888C12.771 0.509558 12.3274 0.726987 11.9448 1.03139C13.3972 1.24013 14.7279 1.46625 15.9542 1.70108C14.8497 0.53565 14.493 0.100789 13.2493 0.413888ZM26.4691 4.94513C32.8181 8.26745 31.2004 11.9986 40.1063 13.6075C39.9585 13.3466 39.8019 13.0858 39.6193 12.8248C37.8537 10.2505 31.6788 5.33651 26.4691 4.94513Z" fill="#1D304E"/>
</g>
<defs>
<clipPath id="clip0_12904_2697">
<rect width="150" height="24" fill="white" transform="translate(0.125977 0.265625)"/>
</clipPath>
</defs>
</svg>
